# xmcd
#
# Track frame offsets:
#	150
#	20260
#	35135
#	60637
#	74815
#	84592
#	101830
#	123405
#	130430
#	144735
#	160030
#	180245
#	195695
#	211272
#	227615
#	240465
#	251212
#
# Disc length: 3637 seconds
#
# Revision: 3
# Processed by: cddbd v1.5.2PL0 Copyright (c) Steve Scherf et al.
# Submitted via: EasyCDDAExtractor 16.0.8.2
#
DISCID=f60e3311
DTITLE=Άνευ ερμηνευτού - Lord of the dance-Michael Flatley's
DYEAR=1996
DGENRE=Ξένη οργανική
TTITLE0=Άνευ ερμηνευτού - Cry of the Celts [Ronan Hardiman]
TTITLE1=Anne Buckley - Suil a buin [Ronan Hardiman]
TTITLE2=Άνευ ερμηνευτού - Celtic dream [Ronan Hardiman]
TTITLE3=Άνευ ερμηνευτού - Warriors [Ronan Hardiman]
TTITLE4=Άνευ ερμηνευτού - Gypsy [Ronan Hardiman]
TTITLE5=Άνευ ερμηνευτού - Breakout [Ronan Hardiman]
TTITLE6=Άνευ ερμηνευτού - The lord of the dance [Ronan Hardiman]
TTITLE7=Άνευ ερμηνευτού - Spirit In the new world [Ronan Hardiman]
TTITLE8=Άνευ ερμηνευτού - Fiery nights [Ronan Hardiman]
TTITLE9=Άνευ ερμηνευτού - Lament [Ronan Hardiman]
TTITLE10=Άνευ ερμηνευτού - Siamsa [Ronan Hardiman]
TTITLE11=Anne Buckley - Our wedding day [Ronan Hardiman]
TTITLE12=Άνευ ερμηνευτού - Stolen kiss [Ronan Hardiman]
TTITLE13=Άνευ ερμηνευτού - Nightmare [Ronan Hardiman]
TTITLE14=Άνευ ερμηνευτού - Victory [Ronan Hardiman]
TTITLE15=Άνευ ερμηνευτού - Cry of the Celts [Ronan Hardiman]
TTITLE16=Άνευ ερμηνευτού - The lord of the dance (With taps)[Ronan Hardiman]
EXTD=
EXTT0=
EXTT1=
EXTT2=
EXTT3=
EXTT4=
EXTT5=
EXTT6=
EXTT7=
EXTT8=
EXTT9=
EXTT10=
EXTT11=
EXTT12=
EXTT13=
EXTT14=
EXTT15=
EXTT16=
PLAYORDER=
